<svg version="1.2" xmlns="http://www.w3.org/2000/svg" viewBox="0 0 164 134" width="164" height="134">
	<title>-e-</title>
	<style>
		.s0 { fill-opacity: .9;fill: #bc7d00 } 
	</style>
	<g id="-e-">
		<path id="twitter" class="s0" d="m164 16.3l-15.3 15.3c0 0 0-1.4 0 2.6 0 2.8-0.4 5.5-1.1 8-0.3 21.1-7 49-34.5 71.1-54.1 43.4-112.1 5.1-112.1 5.1 45.8 0 45.8-15.3 45.8-15.3-10.1 0-30.5-20.4-30.5-20.4 5.1 5.1 15.3 0 15.3 0-25.5-15.3-25.5-30.7-25.5-30.7 5.1 5.1 15.3 0 15.3 0-25.5-20.4-10.2-45.9-10.2-45.9 5.1 25.5 71.3 35.7 71.3 35.7l0.8-0.4c-0.5-2.3-0.8-7.3-0.8-9.8 0-18.3 14.8-30.6 33.1-30.6 10.1 0 19 4.6 25.1 11.7l2.9-1.5 15.3-10.2-10.2 20.4z"/>
	</g>
</svg>